<?xml version="1.0" encoding="utf-8"?>

<!DOCTYPE svg PUBLIC "-//W3C//DTD SVG 1.1//EN" "http://www.w3.org/Graphics/SVG/1.1/DTD/svg11.dtd">
<svg version="1.1" id="Layer_1" xmlns="http://www.w3.org/2000/svg" xmlns:xlink="http://www.w3.org/1999/xlink" x="0px" y="0px"
	 viewBox="0 0 2726.132 713.361" enable-background="new 0 0 2726.132 713.361" xml:space="preserve">
<g>
	<path d="M2643.069,394.36c-7.191,1.437-14.466,0.457-21.694,0.633c-17.714,0.431-35.459-0.032-53.152,0.763
		c-13.285,0.597-26.562,0.332-39.839,0.728c-16.297,0.486-32.616,0.238-48.925,0.343c-32.824,0.212-65.656,0.121-98.469,0.83
		c-14.064,0.304-28.137,0.755-42.205,1.165c-9.26,0.27-18.528,0.068-27.77,0.491c-20.535,0.94-41.088,0.003-61.606,0.724
		c-18.13,0.636-36.26-0.144-54.377,0.665c-2.406,0.108-4.832-0.117-7.244-0.262c-1.87-0.113-2.904,0.732-3.705,2.402
		c-0.824,1.717-0.392,5.252-4.25,3.497c-0.341-0.155-0.802,0.726-0.875,1.38c-0.088,0.791-0.132,1.64-0.464,2.337
		c-0.424,0.892-1.077,1.823-2.255,1.681c-1.465-0.176-1.771-1.413-2.054-2.61c-0.349-1.471,0.582-2.73,0.659-4.121
		c0.067-1.217,0.078-2.481-1.496-2.855c-1.043-0.248-2.084-0.164-2.641,0.85c-0.594,1.081-1.252,2.036-2.279,2.752
		c-1.535,1.071-2.476,0.811-2.836-1.482c-0.292-1.86-1.492-2.263-2.761-2.698c-2.338-0.801-4.811-0.591-7.193-0.352
		c-5.185,0.52-10.289,1.717-15.582,1.188c-2.953-0.295-4.561,1.232-5.671,4.223c-3.004,8.094-5.434,16.434-9.781,24
		c-3.032,5.277-6.542,10.003-11.324,13.943c-4.186,3.449-8.008,7.266-12.896,9.834c-4.036,2.12-7.958,2.643-11.985,0.354
		c-1.158-0.659-2.122-0.885-3.369-0.366c-1.743,0.726-3.597,0.636-5.335,0.035c-6.085-2.104-11.902-4.616-16.507-9.432
		c-3.077-3.219-3.543-6.618-1.802-10.488c1.41-3.134,3.266-6,5.449-8.667c4.465-5.453,8.891-10.938,13.31-16.429
		c0.881-1.094,1.814-2.192,2.448-3.429c1.131-2.206-0.053-4.393-2.431-4.154c-10.657,1.068-21.335,0.194-31.996,0.553
		c-7.435,0.25-14.875,0.428-22.313,0.449c-21.16,0.06-42.32-0.112-63.478,0.071c-13.672,0.118-27.338,0.862-41.01,1.031
		c-16.301,0.201-32.606,0.09-48.909,0.11c-10.878,0.013-21.767-0.293-32.631,0.101c-14.864,0.538-29.737,0.111-44.587,0.67
		c-22.745,0.857-45.497,0.095-68.243,0.722c-16.287,0.448-32.591,0.272-48.887,0.448c-4.424,0.048-8.844,0.377-13.267,0.55
		c-1.668,0.065-2.682,0.768-2.623,2.543c0.137,4.141-3.201,6.704-4.585,10.153c-0.246,0.612-0.802,0.851-1.469,0.678
		c-0.707-0.183-0.851-0.801-0.927-1.378c-0.367-2.8-0.468-5.555,0.217-8.378c0.577-2.38-0.136-3.033-2.609-3.368
		c-0.399-0.054-0.789-0.178-1.188-0.214c-11.467-1.026-11.404-1.013-13.691,10.477c-0.704,3.54-1.747,7.025-2.824,10.475
		c-1.519,4.867-5.938,7-9.805,9.314c-4.452,2.664-9.15,5.33-14.317,6.17c-5.808,0.945-11.527,3.768-17.609,1.731
		c-2.713-0.909-4.789,0.633-6.8,1.713c-4.121,2.214-8.153,1.749-12.199,0.29c-4.315-1.556-6.329-4.857-6.213-8.619
		c0.13-4.223,1.38-7.887,3.753-11.253c3.017-4.277,6.081-8.521,9.125-12.78c0.585-0.818,1.258-1.588,1.739-2.463
		c1.529-2.782,0.814-4.224-2.309-4.393c-3.015-0.164-6.044-0.151-9.065-0.09c-12.687,0.254-25.378,0.211-38.065,0.356
		c-34.637,0.395-69.281,0.145-103.923,0.238c-21.74,0.059-43.479,0.327-65.218,0.409c-31.837,0.12-63.674,0.083-95.51,0.281
		c-8.841,0.055-17.676,0.86-26.52,1.017c-4.799,0.085-9.602-0.027-14.412,0.051c-15.294,0.248-30.593,0.229-45.891,0.38
		c-33.015,0.327-66.036,0.148-99.053,0.254c-9.255,0.03-18.526,0.363-27.761,0.373c-7.188,0.008-14.401,0.771-21.656-0.071
		c-5.124-0.595-10.424,0.008-15.63,0.095c-14.088,0.234-28.179-0.011-42.259,0.34c-24.346,0.607-48.692,0.283-73.037,0.452
		c-12.274,0.085-24.557,0.348-36.818,0.268c-7.212-0.047-14.442,0.403-21.693-0.014c-5.148-0.296-10.427,0.015-15.638,0.125
		c-18.923,0.403-37.848,0.064-56.766,0.358c-39.869,0.619-79.744,0.06-119.608,0.661c-24.767,0.374-49.53,0.393-74.296,0.504
		c-32.421,0.146-64.841,0.341-97.262,0.515c-0.806,0.004-1.612,0.016-2.418,0.014c-1.518-0.004-2.914,0.224-2.85,2.189
		c0.089,2.717-2.191,4.208-3.246,6.328c-0.813,1.635-3.017,1.212-3.704-0.572c-0.28-0.728-0.328-1.559-0.397-2.351
		c-0.086-0.99,0.067-2.105-1.12-2.538c-1.24-0.453-1.795,0.64-2.415,1.341c-1.504,1.698-3.482,2.699-5.336,3.9
		c-1.425,0.923-2.588,1.899-3.904-0.284c-0.752-1.246-1.681-0.16-2.426,0.474c-7.047,5.997-13.796,12.3-20.225,18.966
		c-4.047,4.197-8.088,8.438-12.751,11.997c-0.959,0.732-1.935,1.446-2.935,2.122c-1.308,0.884-2.27,0.286-3-0.848
		c-2.15-3.346-1.98-6.901-0.6-10.402c1.943-4.931,4.954-9.182,8.721-12.92c1.542-1.53,3.33-2.979,3.554-5.37
		c0.052-0.554-0.154-1.324-0.536-1.661c-0.26-0.23-1.224-0.077-1.548,0.238c-9.112,8.89-20.471,14.067-31.775,19.351
		c-4.901,2.291-9.698,4.566-13.413,8.892c-3.259,3.795-7.919,3.51-12.356,2.009c-4.213-1.425-6.653-4.906-7.395-8.861
		c-0.506-2.698,0.397-5.887,2.326-8.396c1.608-2.091,3.379-4.013,5.471-5.606c2.521-1.919,4.03-4.384,4.575-7.504
		c0.276-1.581,0.7-3.14,1.117-4.693c1.344-5.007,1.354-5.131-4.137-5.109c-22.756,0.091-45.512-0.254-68.27,0.326
		c-15.086,0.384-30.188,0.165-45.282,0.171c-45.135,0.017-90.27,0.008-135.406,0.017c-10.679,0.002-21.357,0.046-32.036,0.046
		c-1.605,0-3.302,0.111-3.577-2.215c-0.316-2.667,0.425-3.689,3.134-3.853c1.406-0.085,2.82-0.029,4.231-0.029
		c20.349-0.004,40.7,0.112,61.048-0.053c13.876-0.112,27.747-0.169,41.624-0.108c20.93,0.093,41.862-0.291,62.794-0.346
		c27.398-0.071,54.795-0.011,82.193-0.022c11.256-0.005,22.512-0.077,33.768-0.052c2.782,0.006,4.377-1.113,5.398-3.792
		c2.653-6.954,5.542-13.819,8.401-20.692c2.315-5.566,4.757-11.08,7.076-16.644c0.848-2.034,1.941-4.101,2.169-6.233
		c0.807-7.576,4.306-14.191,7.789-20.603c4.978-9.165,10.832-17.866,16.549-26.611c1.972-3.016,4.716-5.518,7.771-7.538
		c3.795-2.51,6.629-5.693,8.191-10.072c1.292-3.622,3.236-6.845,6.542-9.178c1.606-1.133,2.922-2.785,4.098-4.399
		c2.878-3.952,6.569-7.078,10.122-10.348c2.932-2.698,6.457-4.041,10.426-4.077c5.842-0.053,11.686,0.001,17.529-0.023
		c2.071-0.009,4.195,0.205,5.692,1.621c3.236,3.061,8.54,3.919,9.744,9.189c0.224,0.981,1.415,1.389,2.374,1.701
		c2.672,0.87,5.332,1.803,8.05,2.499c5.473,1.402,10.899,2.896,15.793,5.835c1.199,0.72,2.4,1.47,3.473,2.36
		c1.184,0.982,0.831,2.282-0.748,2.523c-4.171,0.637-8.311,1.544-12.582,1.408c-5.064-0.161-9.986,0.942-14.919,1.906
		c-1.696,0.332-1.85,1.093-1.741,2.864c0.22,3.597,0.587,7.464-3.125,10.017c-1.472,1.013-1.671,2.541-0.955,4.302
		c1.447,3.555,2.425,7.254,2.67,11.108c0.084,1.311,0.939,2.173,1.615,3.165c2.598,3.81,3.623,8.026,3.141,12.608
		c-0.125,1.185-0.593,2.37,0.02,3.549c3.57,6.858,2.364,14.566,3.866,21.794c0.541,2.603,0.049,5.229-0.249,7.825
		c-0.207,1.802-0.735,3.567-1.869,5.022c-0.58,0.745-1.243,1.65-2.433,1.409c-0.99-0.201-0.994-1.118-1.249-1.863
		c-0.919-2.686-1.792-2.891-3.739-1.08c-0.935,0.869-1.378,1.942-1.864,3.047c-3.331,7.576-7.208,14.818-12.73,21.079
		c-0.685,0.776-1.125,1.96,0.682,1.915c1.674-0.042,3.388,0.099,4.592,1.154c3.649,3.2,8.132,3.163,12.452,3.24
		c10.879,0.193,21.792,0.581,32.64-0.033c31.119-1.764,62.261-0.474,93.375-1.245c17.31-0.429,34.622-0.245,51.927-0.814
		c6.43-0.211,12.877,0.145,19.317,0.136c7.441-0.01,14.882-0.152,22.323-0.208c10.266-0.077,20.532-0.085,30.797-0.196
		c14.502-0.156,29.002,0.057,43.51-0.276c20.294-0.466,40.602-0.279,60.905-0.404c22.752-0.14,45.503-0.348,68.255-0.466
		c13.684-0.071,27.369,0.055,41.052-0.054c19.702-0.157,39.402-0.543,59.104-0.657c20.95-0.121,41.901,0.013,62.851-0.064
		c13.282-0.049,26.563-0.354,39.845-0.413c19.533-0.086,39.068,0.023,58.601-0.093c27.97-0.167,55.94-0.497,83.91-0.688
		c12.883-0.088,25.773,0.253,38.649-0.058c34.249-0.828,68.51,0.199,102.746-0.592c23.746-0.549,47.481-0.335,71.22-0.531
		c25.379-0.21,50.764-0.138,76.136-0.667c7.602-0.158,15.226-0.063,22.832-0.518c2.058-0.123,2.833-0.868,2.846-2.882
		c0.031-4.82-0.181-9.647,0.743-14.441c0.336-1.745,0.032-3.575-0.507-5.363c-1.128-3.741-1.075-7.654-0.275-11.376
		c1.516-7.06,2.682-14.223,5.509-20.966c1.553-3.702,2.709-7.572,4.03-11.371c1.792-5.155,4.253-9.957,7.379-14.438
		c2.648-3.796,5.129-7.708,7.783-11.5c2.655-3.794,5.328-7.573,9.454-10.029c2.128-1.266,3.371-3.356,4.541-5.528
		c3.913-7.263,7.831-14.527,12.729-21.209c0.931-1.271,1.517-2.828,2.089-4.32c0.826-2.155,2.304-3.716,4.01-5.188
		c4.311-3.721,9.294-4.576,14.604-3.189c5.964,1.557,11.492,3.839,13.668,10.522c0.549,1.685,1.753,3.159,2.666,4.723
		c4.089,7.001,7.267,14.269,7.984,22.523c0.437,5.033,2.404,9.646,5.492,13.757c4.91,6.536,7.94,13.809,8.113,22.098
		c0.021,0.997,0.193,2.293-0.332,2.947c-2.742,3.418-1.704,6.839-1.064,10.705c1.108,6.699-0.968,13.135-3.841,19.225
		c-0.324,0.687-0.934,1.411-1.598,1.726c-0.956,0.454-2.104,0.288-2.455-0.906c-0.226-0.77,1.115-2.104-0.43-2.352
		c-0.927-0.149-1.413,1.221-1.943,2.085c-5.57,9.064-10.27,18.663-16.653,27.223c-1.091,1.463-0.761,2.308,0.327,3.562
		c2.088,2.408,4.362,3.606,7.741,3.494c8.444-0.279,16.896-0.458,25.34-0.635c19.107-0.4,38.228-0.121,57.343-0.143
		c8.255-0.009,16.525,0.204,24.763-0.195c9.27-0.449,18.555,0.2,27.79-0.401c18.498-1.205,37.01-0.368,55.514-0.852
		c20.516-0.536,41.055-0.254,61.584-0.27c34.46-0.027,68.923,0.261,103.378-0.145c13.258-0.156,26.518-1.202,39.801-1.126
		c1.195,0.007,2.394-0.289,3.589-0.461c4.128-0.596,4.833-1.332,3.614-5.486c-0.583-1.987-0.216-3.442,0.422-5.154
		c1.342-3.598,2.847-7.144,4.967-10.319c3.86-5.783,6.396-12.018,7.385-18.89c0.415-2.886,1.988-5.649,0.22-8.736
		c-0.584-1.02-0.13-2.795,0.189-4.145c1.481-6.273,3.084-12.546,6.554-18.069c3.135-4.991,4.964-10.452,6.57-16.046
		c0.777-2.704,1.891-5.283,3.113-7.841c3.067-6.418,7.49-11.401,14.186-14.048c1.764-0.697,3.151-1.443,4.063-3.239
		c4.551-8.968,12.262-14.747,20.52-19.912c2.726-1.705,5.525-3.314,8.394-4.764c5.196-2.626,10.359-2.93,15.414,0.535
		c3.222,2.209,6.584,4.011,10.623,1.886c0.33-0.174,0.789-0.137,1.189-0.139c2-0.014,4.358-0.392,5.494,1.581
		c1.275,2.214-0.822,3.629-2.075,5.138c-0.514,0.619-1.011,1.256-1.482,1.909c-5.082,7.041-4.244,14.19,2.318,20.11
		c0.74,0.668,1.635,1.362,1.985,2.233c2.175,5.421,5.889,9.933,8.648,14.987c1.515,2.776,1.65,6.305,3.162,9.083
		c4.229,7.771,1.891,15.652,1.007,23.542c-3.883,6.014-3.92,13.44-7.212,19.662c-1.38,2.609-2.117,5.689-5.296,7.033
		c-1.443,0.61-1.441,2.321-1.858,3.606c-1.858,5.733-3.621,11.491-7.008,16.584c-0.408,0.614-0.551,1.507-0.543,2.269
		c0.011,1.131,0.725,2.227,1.819,1.294c3.797-3.239,6.022,1.637,9.155,1.573c1.266,2.921,3.866,2.392,6.238,2.383
		c15.712-0.057,31.422,0.006,47.136-0.318c17.119-0.353,34.251-0.009,51.373-0.245c23.529-0.323,47.055-0.957,70.583-1.359
		c16.494-0.282,32.991-0.352,49.486-0.606c13.688-0.211,27.373-0.621,41.061-0.814c15.085-0.213,30.173-0.311,45.26-0.403
		c25.581-0.156,51.162-0.22,76.743-0.422c9.853-0.078,19.687,0.076,29.558-0.802c9.583-0.852,19.289-0.401,28.94-0.346
		c3.162,0.018,6.408-1.118,9.504,0.444C2643.069,391.135,2643.069,392.747,2643.069,394.36z M471.422,417.522
		c0.002-1.055,0.057-1.846-0.81-2.255c-0.219,0.527-0.548,1.038-0.63,1.585c-0.114,0.763-0.006,1.538,0.793,1.984
		C471.028,418.32,471.282,417.805,471.422,417.522z"/>
</g>
</svg>
