<svg xmlns="http://www.w3.org/2000/svg" xmlns:xlink="http://www.w3.org/1999/xlink" width="768" viewBox="0 0 768 225" height="225" version="1.0"><defs><clipPath id="a"><path d="M 263 66.105469 L 378 66.105469 L 378 156 L 263 156 Z M 263 66.105469"/></clipPath><clipPath id="b"><path d="M 355.902344 91.132812 C 351.203125 89.578125 346.398438 89.164062 341.800781 89.785156 C 337.925781 90.304688 334.308594 87.820312 333.277344 84.042969 C 331.210938 76.4375 325.375 70.070312 317.261719 67.691406 C 311.996094 66.140625 306.621094 66.554688 301.871094 68.46875 C 294.277344 71.574219 288.957031 78.609375 287.714844 86.734375 L 286.527344 94.648438 C 286.371094 95.632812 285.441406 96.304688 284.460938 96.097656 C 275.628906 94.445312 266.847656 99.722656 264.265625 108.519531 C 262.042969 116.070312 265.089844 123.9375 271.289062 128.179688 C 271.910156 128.59375 272.269531 129.320312 272.269531 130.042969 C 271.753906 140.960938 278.726562 151.257812 289.679688 154.464844 C 297.996094 156.898438 306.570312 154.671875 312.613281 149.34375 C 316.851562 145.566406 323.050781 145.046875 327.699219 148.257812 C 330.382812 150.121094 333.433594 151.566406 336.738281 152.550781 C 353.578125 157.519531 371.246094 147.996094 376.460938 131.234375 C 381.679688 114.519531 372.484375 96.566406 355.902344 91.132812 Z M 355.902344 91.132812"/></clipPath><clipPath id="d"><path d="M 291 151 L 299 151 L 299 159.105469 L 291 159.105469 Z M 291 151"/></clipPath><linearGradient x1="46.995" gradientTransform="matrix(.49563 .1458 -.14556 .49647 280.946 -84.63)" xmlns:xlink="http://www.w3.org/1999/xlink" y1="350.572" x2="318.974" gradientUnits="userSpaceOnUse" y2="350.572" xlink:type="simple" xlink:actuate="onLoad" id="c" xlink:show="other"><stop stop-color="#BFF0CF" offset="0"/><stop stop-color="#BFF0CF" offset=".063"/><stop stop-color="#BFF0CF" offset=".094"/><stop stop-color="#BFF0CF" offset=".109"/><stop stop-color="#BEF0D0" offset=".117"/><stop stop-color="#BDEFD0" offset=".125"/><stop stop-color="#BCEFD1" offset=".133"/><stop stop-color="#BBEFD1" offset=".141"/><stop stop-color="#BBEFD2" offset=".148"/><stop stop-color="#BAEED2" offset=".156"/><stop stop-color="#B9EED3" offset=".164"/><stop stop-color="#B8EED3" offset=".172"/><stop stop-color="#B8EED4" offset=".18"/><stop stop-color="#B7EDD4" offset=".188"/><stop stop-color="#B6EDD4" offset=".195"/><stop stop-color="#B5EDD5" offset=".203"/><stop stop-color="#B4EDD5" offset=".211"/><stop stop-color="#B4ECD6" offset=".219"/><stop stop-color="#B3ECD6" offset=".227"/><stop stop-color="#B2ECD7" offset=".234"/><stop stop-color="#B1ECD7" offset=".242"/><stop stop-color="#B1EBD8" offset=".25"/><stop stop-color="#B0EBD8" offset=".258"/><stop stop-color="#AFEBD9" offset=".266"/><stop stop-color="#AEEBD9" offset=".273"/><stop stop-color="#AEEADA" offset=".281"/><stop stop-color="#ADEADA" offset=".289"/><stop stop-color="#ACEADA" offset=".297"/><stop stop-color="#ABEADB" offset=".305"/><stop stop-color="#AAE9DB" offset=".313"/><stop stop-color="#AAE9DC" offset=".32"/><stop stop-color="#A9E9DC" offset=".328"/><stop stop-color="#A8E9DD" offset=".336"/><stop stop-color="#A7E8DD" offset=".344"/><stop stop-color="#A7E8DE" offset=".352"/><stop stop-color="#A6E8DE" offset=".359"/><stop stop-color="#A5E8DF" offset=".367"/><stop stop-color="#A4E7DF" offset=".375"/><stop stop-color="#A4E7E0" offset=".383"/><stop stop-color="#A3E7E0" offset=".391"/><stop stop-color="#A2E7E0" offset=".398"/><stop stop-color="#A1E6E1" offset=".406"/><stop stop-color="#A0E6E1" offset=".414"/><stop stop-color="#A0E6E2" offset=".422"/><stop stop-color="#9FE6E2" offset=".43"/><stop stop-color="#9EE5E3" offset=".438"/><stop stop-color="#9DE5E3" offset=".445"/><stop stop-color="#9DE5E4" offset=".453"/><stop stop-color="#9CE5E4" offset=".461"/><stop stop-color="#9BE4E5" offset=".469"/><stop stop-color="#9AE4E5" offset=".477"/><stop stop-color="#99E4E6" offset=".484"/><stop stop-color="#99E4E6" offset=".492"/><stop stop-color="#98E3E6" offset=".5"/><stop stop-color="#97E3E7" offset=".508"/><stop stop-color="#96E3E7" offset=".516"/><stop stop-color="#96E3E8" offset=".523"/><stop stop-color="#95E2E8" offset=".531"/><stop stop-color="#94E2E9" offset=".539"/><stop stop-color="#93E2E9" offset=".547"/><stop stop-color="#93E2EA" offset=".555"/><stop stop-color="#92E1EA" offset=".563"/><stop stop-color="#91E1EB" offset=".57"/><stop stop-color="#90E1EB" offset=".578"/><stop stop-color="#8FE1EC" offset=".586"/><stop stop-color="#8FE0EC" offset=".594"/><stop stop-color="#8EE0EC" offset=".602"/><stop stop-color="#8DE0ED" offset=".609"/><stop stop-color="#8CE0ED" offset=".617"/><stop stop-color="#8CDFEE" offset=".625"/><stop stop-color="#8BDFEE" offset=".633"/><stop stop-color="#8ADFEF" offset=".641"/><stop stop-color="#89DFEF" offset=".648"/><stop stop-color="#89DEF0" offset=".656"/><stop stop-color="#88DEF0" offset=".664"/><stop stop-color="#87DEF1" offset=".672"/><stop stop-color="#86DEF1" offset=".68"/><stop stop-color="#85DDF2" offset=".688"/><stop stop-color="#85DDF2" offset=".695"/><stop stop-color="#84DDF2" offset=".703"/><stop stop-color="#83DDF3" offset=".711"/><stop stop-color="#82DCF3" offset=".719"/><stop stop-color="#82DCF4" offset=".727"/><stop stop-color="#81DCF4" offset=".734"/><stop stop-color="#80DCF5" offset=".742"/><stop stop-color="#7FDBF5" offset=".75"/><stop stop-color="#7FDBF6" offset=".758"/><stop stop-color="#7EDBF6" offset=".766"/><stop stop-color="#7DDBF7" offset=".773"/><stop stop-color="#7CDAF7" offset=".781"/><stop stop-color="#7BDAF8" offset=".789"/><stop stop-color="#7BDAF8" offset=".797"/><stop stop-color="#7ADAF8" offset=".805"/><stop stop-color="#79D9F9" offset=".813"/><stop stop-color="#78D9F9" offset=".82"/><stop stop-color="#78D9FA" offset=".828"/><stop stop-color="#77D9FA" offset=".836"/><stop stop-color="#76D8FB" offset=".844"/><stop stop-color="#75D8FB" offset=".852"/><stop stop-color="#75D8FC" offset=".859"/><stop stop-color="#74D8FC" offset=".867"/><stop stop-color="#73D7FD" offset=".875"/><stop stop-color="#72D7FD" offset=".883"/><stop stop-color="#71D7FE" offset=".891"/><stop stop-color="#71D7FE" offset=".898"/><stop stop-color="#70D6FE" offset=".906"/><stop stop-color="#6FD6FF" offset=".938"/><stop stop-color="#6FD6FF" offset="1"/></linearGradient></defs><g clip-path="url(#a)"><g clip-path="url(#b)"><path fill="url(#c)" d="M 271.542969 33.738281 L 237.378906 150.261719 L 372.179688 189.917969 L 406.34375 73.394531 Z M 271.542969 33.738281"/></g></g><path fill="#FFF" d="M 265.710938 156.433594 C 265.605469 156.433594 265.453125 156.433594 265.347656 156.433594 C 254.449219 156.277344 245.253906 147.996094 243.960938 137.183594 C 242.929688 128.851562 246.648438 120.78125 253.570312 116.125 C 258.066406 113.121094 260.335938 107.691406 259.40625 102.308594 C 259.148438 100.652344 258.996094 98.996094 258.996094 97.339844 C 258.996094 82.59375 270.515625 69.96875 285.132812 68.625 C 292.828125 67.949219 300.371094 70.226562 306.261719 75.195312 C 310.960938 79.128906 317.78125 79.074219 322.429688 75.089844 C 327.386719 70.847656 333.535156 68.417969 340.097656 68.15625 C 348.050781 67.847656 355.542969 70.746094 361.273438 76.28125 C 367.007812 81.816406 370.109375 89.269531 370.058594 97.238281 C 369.953125 111.933594 358.949219 124.195312 344.332031 125.800781 C 342.109375 126.058594 339.890625 126.007812 337.667969 125.75 C 332.761719 125.179688 328.007812 127.144531 325.21875 130.972656 C 319.949219 138.167969 311.890625 142.511719 303.007812 142.824219 C 299.90625 142.925781 296.859375 142.566406 293.914062 141.738281 C 290.351562 140.703125 286.578125 142.203125 284.773438 145.359375 C 280.84375 152.242188 273.5625 156.433594 265.710938 156.433594 Z M 287.871094 69.039062 C 286.992188 69.039062 286.113281 69.089844 285.238281 69.140625 C 270.824219 70.484375 259.511719 82.851562 259.460938 97.339844 C 259.460938 98.996094 259.613281 100.601562 259.871094 102.203125 C 260.855469 107.792969 258.425781 113.433594 253.828125 116.539062 C 247.0625 121.089844 243.445312 128.957031 244.425781 137.082031 C 245.71875 147.636719 254.707031 155.707031 265.347656 155.914062 C 273.199219 156.070312 280.433594 151.929688 284.359375 145.101562 C 286.269531 141.738281 290.296875 140.132812 294.121094 141.269531 C 297.015625 142.097656 300.011719 142.460938 303.058594 142.359375 C 311.789062 142.046875 319.742188 137.753906 324.855469 130.714844 C 327.75 126.730469 332.707031 124.660156 337.769531 125.28125 C 339.941406 125.542969 342.109375 125.542969 344.28125 125.335938 C 358.589844 123.78125 369.4375 111.726562 369.539062 97.289062 C 369.59375 89.425781 366.542969 82.128906 360.914062 76.695312 C 355.28125 71.261719 347.894531 68.417969 340.097656 68.726562 C 333.640625 68.984375 327.648438 71.3125 322.738281 75.503906 C 317.882812 79.644531 310.804688 79.695312 305.898438 75.609375 C 300.785156 71.3125 294.484375 69.039062 287.871094 69.039062 Z M 287.871094 69.039062"/><path fill="#FFF" d="M 355.644531 89.371094 L 351.253906 89.371094 L 351.253906 84.972656 C 351.253906 84.664062 350.996094 84.40625 350.683594 84.40625 C 350.375 84.40625 350.117188 84.664062 350.117188 84.972656 L 350.117188 89.371094 L 345.726562 89.371094 C 345.417969 89.371094 345.160156 89.632812 345.160156 89.941406 C 345.160156 90.253906 345.417969 90.511719 345.726562 90.511719 L 350.117188 90.511719 L 350.117188 94.910156 C 350.117188 95.21875 350.375 95.476562 350.683594 95.476562 C 350.996094 95.476562 351.253906 95.21875 351.253906 94.910156 L 351.253906 90.511719 L 355.644531 90.511719 C 355.953125 90.511719 356.210938 90.253906 356.210938 89.941406 C 356.210938 89.578125 355.953125 89.371094 355.644531 89.371094 Z M 355.644531 89.371094"/><path fill="#FFF" d="M 294.484375 81.25 L 290.09375 81.25 L 290.09375 76.851562 C 290.09375 76.539062 289.832031 76.28125 289.523438 76.28125 C 289.214844 76.28125 288.957031 76.539062 288.957031 76.851562 L 288.957031 81.25 L 284.566406 81.25 C 284.253906 81.25 283.996094 81.507812 283.996094 81.816406 C 283.996094 82.128906 284.253906 82.386719 284.566406 82.386719 L 288.957031 82.386719 L 288.957031 86.785156 C 288.957031 87.097656 289.214844 87.355469 289.523438 87.355469 C 289.832031 87.355469 290.09375 87.097656 290.09375 86.785156 L 290.09375 82.386719 L 294.484375 82.386719 C 294.792969 82.386719 295.050781 82.128906 295.050781 81.816406 C 295.050781 81.507812 294.792969 81.25 294.484375 81.25 Z M 294.484375 81.25"/><g clip-path="url(#d)"><path fill="#FFF" d="M 298.410156 155.085938 L 295.464844 155.085938 L 295.464844 152.085938 C 295.464844 151.878906 295.308594 151.722656 295.101562 151.722656 C 294.894531 151.722656 294.742188 151.878906 294.742188 152.085938 L 294.742188 155.035156 L 291.796875 155.035156 C 291.589844 155.035156 291.433594 155.191406 291.433594 155.398438 C 291.433594 155.605469 291.589844 155.757812 291.796875 155.757812 L 294.742188 155.757812 L 294.742188 158.707031 C 294.742188 158.914062 294.894531 159.070312 295.101562 159.070312 C 295.308594 159.070312 295.464844 158.914062 295.464844 158.707031 L 295.464844 155.757812 L 298.410156 155.757812 C 298.617188 155.757812 298.769531 155.605469 298.769531 155.398438 C 298.769531 155.191406 298.617188 155.085938 298.410156 155.085938 Z M 298.410156 155.085938"/></g><g fill="#1C2120"><g><g><path d="M 10.652344 0.847656 L 10.613281 0.746094 C 10.308594 -0.183594 10.46875 -0.929688 9.460938 -3.4375 C 8.449219 -5.984375 6.769531 -7.921875 4.589844 -9.5625 L 2.222656 -11.277344 C 1.941406 -11.480469 1.597656 -11.644531 1.496094 -11.984375 C 1.820312 -12.472656 3.335938 -12.917969 4.042969 -13.136719 C 5.011719 -13.421875 5.941406 -13.683594 6.933594 -13.945312 C 8.085938 -14.210938 11.984375 -15.140625 13.179688 -15.140625 C 11.964844 -9.925781 11.519531 -6.367188 10.875 -1.253906 Z M 0.808594 -12.128906 C 0.808594 -11.621094 1.089844 -11.359375 1.394531 -11.136719 L 3.234375 -9.824219 C 4.285156 -9.035156 5.839844 -7.964844 6.691406 -6.894531 C 7.984375 -5.253906 8.851562 -3.859375 9.480469 -1.617188 C 9.925781 -0.0195312 10.308594 2.242188 10.308594 3.980469 L 9.964844 9.722656 C 10.105469 9.804688 10.148438 9.925781 10.308594 9.925781 C 10.753906 9.925781 10.734375 9.035156 10.773438 8.632812 L 11.441406 2.0625 C 11.519531 1.457031 11.542969 0.96875 11.621094 0.382812 C 11.925781 -1.777344 12.128906 -3.800781 12.492188 -6.042969 L 13.582031 -12.207031 C 13.644531 -12.59375 14.109375 -15.078125 14.191406 -15.261719 C 14.9375 -15.261719 15.402344 -15.339844 16.109375 -15.339844 C 17.625 -15.339844 20.71875 -14.898438 22.316406 -14.511719 C 22.738281 -14.390625 23.023438 -14.3125 23.203125 -14.3125 C 23.367188 -14.3125 23.425781 -14.390625 23.425781 -14.65625 C 23.425781 -15.503906 17.324219 -16.089844 16.515625 -16.171875 C 16.394531 -16.171875 16.292969 -16.171875 16.148438 -16.171875 C 15.683594 -16.171875 15.140625 -16.148438 14.714844 -16.148438 C 14.59375 -16.148438 14.492188 -16.148438 14.390625 -16.148438 C 13.824219 -16.191406 14.269531 -16.351562 13.726562 -16.351562 C 13.382812 -16.351562 13.664062 -16.089844 13.039062 -16.027344 C 9.761719 -15.683594 6.488281 -14.9375 3.375 -13.867188 L 1.878906 -13.238281 C 1.554688 -13.039062 0.808594 -12.59375 0.808594 -12.128906 Z M 0.808594 -12.128906" transform="translate(322.801 145.743)"/></g></g></g><g fill="#1C2120"><g><g><path d="M 0.28125 -0.0820312 C 0.910156 -0.0820312 0.667969 -0.769531 0.789062 -1.292969 C 0.871094 -1.777344 1.050781 -2.183594 1.253906 -2.527344 C 1.578125 -3.050781 1.675781 -3.050781 2.445312 -3.050781 C 2.667969 -3.050781 2.972656 -3.03125 3.234375 -3.03125 C 3.636719 -3.03125 3.960938 -3.074219 3.960938 -3.355469 C 3.960938 -3.617188 3.335938 -3.660156 2.75 -3.660156 C 2.40625 -3.660156 2.0625 -3.636719 1.878906 -3.636719 C 1.253906 -3.636719 1.132812 -3.253906 0.828125 -3.050781 C 0.828125 -3.316406 0.871094 -3.292969 0.871094 -3.578125 C 0.871094 -3.78125 0.871094 -4.023438 0.890625 -4.222656 C 0.949219 -4.789062 1.050781 -5.175781 0.503906 -5.175781 C 0.0625 -5.175781 0.0195312 -3.074219 0.0195312 -2.707031 C 0.0390625 -2.203125 0.0195312 -1.699219 0.0390625 -1.210938 C 0.0390625 -1.070312 -0.121094 -0.0820312 0.28125 -0.0820312 Z M 0.28125 -0.0820312" transform="translate(336.135 145.743)"/></g></g></g><g fill="#1C2120"><g><g><path d="M 0 -2.042969 C 0 -1.3125 0.0625 -0.96875 0.808594 -0.96875 C 1.394531 -0.96875 2.019531 -2.871094 2.40625 -3.132812 C 2.40625 -2.265625 3.050781 -1.210938 4.0625 -1.210938 C 4.40625 -1.210938 4.789062 -1.335938 5.195312 -1.617188 L 5.800781 -2.101562 C 6.832031 -3.09375 6.710938 -3.597656 6.40625 -3.597656 C 6.285156 -3.597656 6.144531 -3.539062 6.042969 -3.394531 C 5.761719 -3.09375 5.699219 -2.910156 5.316406 -2.566406 C 4.871094 -2.121094 4.445312 -1.878906 4.0625 -1.878906 C 3.636719 -1.878906 3.273438 -2.203125 3.113281 -2.929688 C 2.929688 -3.699219 3.273438 -4.609375 2.566406 -4.609375 C 2.304688 -4.609375 1.476562 -2.890625 1.070312 -2.265625 L 0.910156 -2.019531 C 0.808594 -1.898438 0.871094 -1.980469 0.808594 -1.921875 C 0.808594 -2.585938 1.089844 -3.355469 1.355469 -3.78125 C 1.941406 -4.789062 2.34375 -5.074219 2.648438 -5.074219 C 3.03125 -5.074219 3.273438 -4.609375 3.558594 -4.609375 C 4.082031 -4.609375 3.558594 -5.761719 2.609375 -5.761719 C 1.191406 -5.761719 0 -3.195312 0 -2.042969 Z M 0 -2.042969" transform="translate(339.428 145.743)"/></g></g></g><g fill="#1C2120"><g><g><path d="M 1.675781 0.0820312 C 2.628906 0.0820312 3.394531 -0.808594 3.882812 -1.3125 C 4.203125 -1.636719 5.417969 -2.992188 5.417969 -3.375 C 5.417969 -3.558594 5.355469 -3.617188 5.277344 -3.617188 C 4.890625 -3.617188 3.820312 -2.183594 3.738281 -2.082031 C 3.4375 -1.699219 2.386719 -0.625 1.738281 -0.625 C 1.191406 -0.625 0.96875 -1.820312 0.96875 -2.425781 C 0.96875 -4.488281 1.777344 -5.398438 0.847656 -5.398438 C 0.445312 -5.398438 0.242188 -4.488281 0.183594 -4.0625 C -0.0390625 -3.03125 0 -1.636719 0.484375 -0.726562 C 0.707031 -0.34375 1.132812 0.0820312 1.675781 0.0820312 Z M 1.03125 -7.945312 C 1.03125 -7.5 1.292969 -7.296875 1.578125 -7.296875 C 1.980469 -7.296875 2.40625 -7.742188 2.019531 -8.488281 C 1.898438 -8.710938 1.757812 -8.792969 1.617188 -8.792969 C 1.3125 -8.792969 1.03125 -8.410156 1.03125 -7.945312 Z M 1.03125 -7.945312" transform="translate(345.287 145.743)"/></g></g></g><g fill="#1C2120"><g><g><path d="M 0.566406 -1.050781 C 1.355469 -1.050781 2.164062 -3.636719 2.828125 -4.082031 C 3.011719 -3.699219 2.730469 -2.890625 3.132812 -1.675781 C 3.316406 -1.132812 3.660156 -0.585938 4.285156 -0.585938 C 4.40625 -0.585938 4.527344 -0.605469 4.667969 -0.648438 C 5.132812 -0.769531 5.78125 -1.578125 6.0625 -1.941406 C 6.183594 -2.101562 7.378906 -3.597656 6.589844 -3.597656 C 6.226562 -3.597656 5.15625 -1.191406 4.347656 -1.191406 C 3.597656 -1.191406 3.558594 -2.992188 3.558594 -3.496094 L 3.4375 -4.628906 C 3.335938 -4.851562 3.195312 -4.953125 3.050781 -4.953125 C 2.566406 -4.953125 1.960938 -3.921875 1.839844 -3.699219 L 0.871094 -2.222656 C 0.871094 -3.800781 2.183594 -5.699219 1.292969 -5.699219 C 0.527344 -5.699219 -0.726562 -1.050781 0.566406 -1.050781 Z M 0.566406 -1.050781" transform="translate(349.893 145.743)"/></g></g></g><g fill="#1C2120"><g><g><path d="M 0.929688 -3.660156 C 1.070312 -4.164062 1.738281 -4.953125 2.285156 -5.054688 C 2.222656 -4.40625 1.433594 -3.921875 0.929688 -3.660156 Z M 0.0195312 -3.171875 C 0.0195312 -2.609375 0 -2.101562 0.484375 -1.617188 C 0.828125 -1.273438 1.234375 -1.132812 1.65625 -1.132812 C 2.890625 -1.132812 4.285156 -2.363281 5.03125 -3.113281 C 5.214844 -3.335938 5.214844 -3.355469 5.15625 -3.660156 C 4.546875 -3.660156 4.871094 -3.578125 4.042969 -2.929688 C 3.902344 -2.828125 3.839844 -2.75 3.679688 -2.628906 C 3.273438 -2.324219 2.425781 -1.738281 1.71875 -1.738281 C 1.476562 -1.738281 1.234375 -1.820312 1.050781 -2 C 0.707031 -2.34375 0.746094 -2.667969 0.746094 -3.09375 C 1.375 -3.132812 2.101562 -3.71875 2.425781 -4.082031 C 3.050781 -4.871094 3.050781 -5.679688 2.164062 -5.679688 C 1.191406 -5.679688 0.0195312 -4.183594 0.0195312 -3.171875 Z M 0.0195312 -3.171875" transform="translate(355.954 145.743)"/></g></g></g><g fill="#1C2120"><g><g><path d="M 0.929688 -3.660156 C 1.070312 -4.164062 1.738281 -4.953125 2.285156 -5.054688 C 2.222656 -4.40625 1.433594 -3.921875 0.929688 -3.660156 Z M 0.0195312 -3.171875 C 0.0195312 -2.609375 0 -2.101562 0.484375 -1.617188 C 0.828125 -1.273438 1.234375 -1.132812 1.65625 -1.132812 C 2.890625 -1.132812 4.285156 -2.363281 5.03125 -3.113281 C 5.214844 -3.335938 5.214844 -3.355469 5.15625 -3.660156 C 4.546875 -3.660156 4.871094 -3.578125 4.042969 -2.929688 C 3.902344 -2.828125 3.839844 -2.75 3.679688 -2.628906 C 3.273438 -2.324219 2.425781 -1.738281 1.71875 -1.738281 C 1.476562 -1.738281 1.234375 -1.820312 1.050781 -2 C 0.707031 -2.34375 0.746094 -2.667969 0.746094 -3.09375 C 1.375 -3.132812 2.101562 -3.71875 2.425781 -4.082031 C 3.050781 -4.871094 3.050781 -5.679688 2.164062 -5.679688 C 1.191406 -5.679688 0.0195312 -4.183594 0.0195312 -3.171875 Z M 0.0195312 -3.171875" transform="translate(360.338 145.743)"/></g></g></g><g fill="#1C2120"><g><g><path d="M 12.875 -16.128906 C 12.875 -15.765625 12.976562 -15.464844 13.039062 -15.097656 C 13.28125 -13.664062 13.582031 -12.652344 13.867188 -10.996094 C 14.289062 -8.085938 14.210938 -4.730469 13.867188 -1.820312 C 13.523438 0.890625 12.835938 4.0625 11.644531 6.550781 C 11.136719 7.621094 9.84375 10.148438 8.488281 10.148438 C 6.992188 10.148438 6.449219 7.457031 6.246094 6.367188 C 5.984375 5.132812 6.0625 4.648438 5.941406 3.636719 C 5.863281 2.851562 5.921875 1.738281 5.863281 1.171875 C 5.820312 0.304688 5.882812 0.625 5.863281 0.0820312 C 5.863281 -0.101562 5.902344 -0.503906 5.902344 -0.769531 C 5.902344 -1.335938 5.839844 -2.0625 5.902344 -2.609375 L 6.105469 -6.085938 C 6.105469 -6.832031 6.40625 -8.996094 5.679688 -8.996094 C 5.640625 -8.996094 5.597656 -8.996094 5.539062 -8.972656 C 5.15625 -8.875 5.011719 -8.246094 4.890625 -7.824219 L 2.183594 0.464844 C 1.839844 1.476562 1.253906 3.234375 0.808594 4.203125 L 0.667969 4.507812 C 0.667969 3.558594 0.6875 2.75 0.789062 1.960938 C 1.113281 -0.445312 1.253906 -1.414062 1.699219 -3.839844 L 2.445312 -7.09375 C 2.667969 -7.824219 2.851562 -8.488281 3.03125 -9.195312 C 3.195312 -9.703125 4.003906 -12.410156 4.265625 -12.671875 C 4.445312 -12.9375 4.589844 -12.816406 4.425781 -13.523438 C 4.285156 -13.5625 4.164062 -13.582031 4.082031 -13.582031 C 3.679688 -13.582031 3.578125 -13.257812 3.152344 -12.230469 C 3.050781 -12.007812 3.011719 -11.925781 2.910156 -11.664062 L 1.355469 -6.46875 C 1.292969 -6.226562 1.253906 -6.0625 1.191406 -5.820312 L 0.890625 -4.566406 C 0.445312 -2.386719 0.34375 -1.457031 0.0390625 0.667969 C -0.101562 1.597656 -0.0625 2.507812 -0.160156 3.476562 C -0.203125 3.757812 -0.160156 3.78125 -0.183594 4.0625 C -0.203125 4.285156 -0.160156 5.839844 0.324219 5.839844 C 0.992188 5.839844 0.992188 5.597656 1.457031 4.609375 C 1.980469 3.457031 2.851562 0.648438 3.316406 -0.746094 L 4.992188 -5.839844 C 5.03125 -5.941406 5.03125 -5.960938 5.054688 -6.042969 L 5.15625 -6.207031 C 5.15625 -5.355469 5.011719 -4.125 5.011719 -3.660156 C 5.011719 -3.273438 4.992188 -3.074219 4.953125 -2.789062 C 4.910156 -2.265625 4.953125 -1.515625 4.953125 -0.992188 C 4.953125 -0.605469 4.890625 -0.527344 4.890625 -0.121094 C 4.890625 2.304688 4.972656 7.335938 6.347656 9.480469 C 6.75 10.207031 7.578125 10.933594 8.449219 10.933594 C 9.097656 10.933594 9.683594 10.53125 10.226562 10.105469 C 11.054688 9.460938 12.207031 7.296875 12.613281 6.328125 C 14.289062 2.140625 14.59375 -0.808594 14.917969 -5.296875 C 14.9375 -5.417969 14.917969 -5.417969 14.917969 -5.496094 L 14.9375 -6.8125 C 14.9375 -7.257812 14.855469 -7.417969 14.875 -7.902344 C 14.875 -9.601562 14.554688 -11.21875 14.269531 -12.917969 C 14.191406 -13.402344 13.703125 -15.96875 13.257812 -16.414062 C 13.136719 -16.371094 12.875 -16.269531 12.875 -16.128906 Z M 12.875 -16.128906" transform="translate(369.955 145.743)"/></g></g></g><g fill="#1C2120"><g><g><path d="M 0.929688 -3.660156 C 1.070312 -4.164062 1.738281 -4.953125 2.285156 -5.054688 C 2.222656 -4.40625 1.433594 -3.921875 0.929688 -3.660156 Z M 0.0195312 -3.171875 C 0.0195312 -2.609375 0 -2.101562 0.484375 -1.617188 C 0.828125 -1.273438 1.234375 -1.132812 1.65625 -1.132812 C 2.890625 -1.132812 4.285156 -2.363281 5.03125 -3.113281 C 5.214844 -3.335938 5.214844 -3.355469 5.15625 -3.660156 C 4.546875 -3.660156 4.871094 -3.578125 4.042969 -2.929688 C 3.902344 -2.828125 3.839844 -2.75 3.679688 -2.628906 C 3.273438 -2.324219 2.425781 -1.738281 1.71875 -1.738281 C 1.476562 -1.738281 1.234375 -1.820312 1.050781 -2 C 0.707031 -2.34375 0.746094 -2.667969 0.746094 -3.09375 C 1.375 -3.132812 2.101562 -3.71875 2.425781 -4.082031 C 3.050781 -4.871094 3.050781 -5.679688 2.164062 -5.679688 C 1.191406 -5.679688 0.0195312 -4.183594 0.0195312 -3.171875 Z M 0.0195312 -3.171875" transform="translate(385.915 145.743)"/></g></g></g><g fill="#1C2120"><g><g><path d="M 0.929688 2.484375 C -0.121094 2.484375 1.070312 1.355469 1.777344 0.910156 C 2.0625 0.726562 3.234375 0.0820312 3.496094 0 C 3.011719 0.910156 2.140625 2.484375 0.929688 2.484375 Z M 0.28125 -1.273438 C 0.28125 -0.707031 0.183594 0.140625 0.726562 0.140625 C 1.113281 0.140625 1.414062 -1.65625 2.425781 -2.890625 C 2.828125 -3.355469 3.152344 -3.558594 3.394531 -3.558594 C 4.003906 -3.558594 4.164062 -2.40625 3.902344 -1.253906 C 3.800781 -0.789062 3.78125 -0.871094 3.394531 -0.6875 C 2.40625 -0.203125 -0.121094 1.03125 -0.121094 2.203125 C -0.121094 2.828125 0.34375 3.09375 0.910156 3.09375 C 1.375 3.09375 1.898438 2.929688 2.34375 2.648438 C 3.839844 1.738281 4.324219 -0.121094 4.488281 -0.402344 C 4.589844 -0.566406 6.003906 -1.292969 6.648438 -1.757812 C 6.972656 -2.042969 7.296875 -2.265625 7.601562 -2.585938 C 7.679688 -2.628906 8.652344 -3.476562 7.824219 -3.476562 C 7.679688 -3.476562 6.75 -2.609375 6.386719 -2.34375 C 5.660156 -1.820312 5.496094 -1.757812 4.730469 -1.355469 C 4.730469 -1.960938 4.972656 -2.648438 4.507812 -3.539062 C 4.246094 -4.003906 3.882812 -4.222656 3.476562 -4.222656 C 2.949219 -4.222656 2.386719 -3.859375 1.960938 -3.273438 C 1.777344 -3.074219 1.617188 -2.851562 1.496094 -2.585938 L 1.050781 -1.859375 C 1.050781 -3.496094 1.617188 -7.84375 2.0625 -9.5 C 2.082031 -9.683594 2.183594 -9.964844 2.183594 -10.027344 C 2.203125 -10.167969 2.082031 -10.410156 1.898438 -10.410156 C 1.738281 -10.410156 1.535156 -10.246094 1.335938 -9.703125 C 0.585938 -7.800781 0.28125 -3.292969 0.28125 -1.273438 Z M 0.28125 -1.273438" transform="translate(390.3 145.743)"/></g></g></g><g fill="#1C2120"><g><g><path d="M 8.023438 3.636719 L 8.023438 6.183594 L 7.558594 6.183594 C 6.691406 6.183594 5.253906 5.742188 5.761719 4.851562 C 6.023438 4.324219 7.277344 3.800781 8.023438 3.636719 Z M 8.894531 6.0625 L 8.953125 4.222656 C 9.015625 3.558594 8.730469 3.457031 9.378906 3.355469 C 10.289062 3.214844 11.015625 3.132812 11.742188 3.132812 C 12.289062 3.132812 12.855469 3.171875 13.523438 3.273438 C 13.90625 3.335938 14.410156 3.476562 14.796875 3.476562 C 14.351562 4.101562 10.226562 6.0625 8.894531 6.0625 Z M 15.625 2.949219 C 15.28125 2.949219 15.078125 2.890625 14.796875 2.828125 C 13.601562 2.628906 12.613281 2.507812 11.542969 2.507812 C 10.933594 2.507812 10.308594 2.546875 9.601562 2.648438 C 9.339844 2.6875 9.175781 2.730469 9.074219 2.730469 C 8.773438 2.730469 9.117188 2.324219 9.097656 0.121094 L 9.378906 -4.101562 C 9.5625 -5.4375 9.640625 -6.671875 9.882812 -8.144531 C 10.148438 -9.824219 10.410156 -11.035156 10.710938 -12.652344 C 10.855469 -13.402344 10.914062 -13.320312 12.1875 -13.886719 L 14.210938 -14.59375 C 15.300781 -14.917969 16.535156 -15.160156 17.765625 -15.160156 C 18.65625 -15.160156 19.566406 -15.039062 20.394531 -14.675781 C 24.640625 -12.917969 23.527344 -6.933594 21.6875 -3.738281 C 21.242188 -2.992188 20.71875 -2.121094 20.171875 -1.414062 C 20.050781 -1.273438 19.992188 -1.210938 19.890625 -1.070312 C 19.546875 -0.625 18.171875 0.910156 17.765625 1.234375 C 17.605469 1.355469 17.566406 1.375 17.402344 1.515625 L 16.394531 2.386719 C 16.3125 2.445312 15.625 2.949219 15.625 2.949219 Z M 11.117188 -14.289062 C 11.117188 -14.632812 11.054688 -14.574219 10.792969 -14.714844 C 10.308594 -14.59375 10.289062 -14.210938 10.105469 -13.824219 C 10.003906 -13.542969 9.601562 -13.382812 9.195312 -13.160156 C 8.042969 -12.453125 6.992188 -11.601562 5.984375 -10.710938 C 4.324219 -9.054688 3.253906 -7.945312 1.921875 -5.941406 C 0.992188 -4.566406 -0.402344 -1.960938 -0.402344 -0.121094 C -0.402344 0.96875 0.324219 1.394531 0.769531 1.394531 C 0.992188 1.394531 1.132812 1.292969 1.089844 1.113281 C 0.992188 0.648438 0.222656 1.191406 0.222656 -0.121094 C 0.222656 -2.527344 2.871094 -6.328125 4.527344 -8.226562 L 5.863281 -9.640625 C 6.691406 -10.46875 8.851562 -12.148438 9.78125 -12.613281 L 9.054688 -9.054688 C 8.8125 -7.558594 8.265625 -2.828125 8.289062 -1.234375 C 8.289062 -0.585938 8.144531 0.183594 8.144531 0.828125 C 8.144531 1.535156 8.085938 2.140625 8.085938 2.890625 C 7.296875 3.292969 4.992188 3.539062 4.992188 5.296875 C 4.992188 6.347656 6.488281 6.894531 7.398438 6.894531 C 7.578125 6.894531 7.699219 6.871094 7.800781 6.871094 C 7.964844 6.871094 8.003906 6.972656 8.066406 7.480469 C 8.085938 7.800781 8.085938 7.984375 8.167969 8.265625 C 8.289062 8.609375 8.46875 8.730469 8.632812 8.730469 C 8.8125 8.730469 8.972656 8.589844 8.953125 8.449219 L 8.875 6.832031 C 9.398438 6.8125 10.46875 6.507812 10.894531 6.347656 C 12.1875 5.941406 13.988281 5.03125 15.121094 4.285156 C 15.5625 3.980469 15.726562 3.800781 16.007812 3.800781 C 16.191406 3.800781 16.394531 3.882812 16.757812 4.0625 C 17.140625 4.265625 17.058594 4.425781 17.34375 4.609375 C 17.988281 4.164062 17.261719 3.496094 16.636719 3.355469 C 16.714844 3.09375 16.9375 2.972656 17.28125 2.730469 C 17.523438 2.527344 17.746094 2.34375 17.988281 2.140625 C 18.292969 1.898438 19.28125 0.929688 19.585938 0.546875 L 20.191406 -0.121094 C 22.011719 -2.265625 23.285156 -4.445312 23.953125 -7.296875 C 24.5 -9.683594 24.316406 -12.429688 22.496094 -14.25 C 21.242188 -15.523438 19.503906 -15.988281 17.746094 -15.988281 C 16.535156 -15.988281 15.320312 -15.765625 14.210938 -15.441406 L 11.90625 -14.574219 C 11.644531 -14.472656 11.421875 -14.289062 11.117188 -14.289062 Z M 11.117188 -14.289062" transform="translate(402.704 145.743)"/></g></g></g><g fill="#1C2120"><g><g><path d="M 0.929688 -3.660156 C 1.070312 -4.164062 1.738281 -4.953125 2.285156 -5.054688 C 2.222656 -4.40625 1.433594 -3.921875 0.929688 -3.660156 Z M 0.0195312 -3.171875 C 0.0195312 -2.609375 0 -2.101562 0.484375 -1.617188 C 0.828125 -1.273438 1.234375 -1.132812 1.65625 -1.132812 C 2.890625 -1.132812 4.285156 -2.363281 5.03125 -3.113281 C 5.214844 -3.335938 5.214844 -3.355469 5.15625 -3.660156 C 4.546875 -3.660156 4.871094 -3.578125 4.042969 -2.929688 C 3.902344 -2.828125 3.839844 -2.75 3.679688 -2.628906 C 3.273438 -2.324219 2.425781 -1.738281 1.71875 -1.738281 C 1.476562 -1.738281 1.234375 -1.820312 1.050781 -2 C 0.707031 -2.34375 0.746094 -2.667969 0.746094 -3.09375 C 1.375 -3.132812 2.101562 -3.71875 2.425781 -4.082031 C 3.050781 -4.871094 3.050781 -5.679688 2.164062 -5.679688 C 1.191406 -5.679688 0.0195312 -4.183594 0.0195312 -3.171875 Z M 0.0195312 -3.171875" transform="translate(426.28 145.743)"/></g></g></g><g fill="#1C2120"><g><g><path d="M 0.0195312 -2.203125 C 0.0195312 -1.515625 -0.0820312 -0.363281 0.445312 0.140625 C 0.625 0.324219 0.808594 0.402344 0.992188 0.402344 C 2.082031 0.402344 3.273438 -2.425781 3.578125 -3.09375 C 3.78125 -3.539062 4.46875 -4.890625 3.941406 -4.890625 C 3.558594 -4.890625 3.375 -4.125 3.171875 -3.738281 C 2.851562 -3.050781 1.820312 -0.566406 1.011719 -0.363281 C 0.746094 -1.515625 0.929688 -2.304688 1.132812 -3.496094 C 1.253906 -4.324219 1.554688 -5.054688 1.335938 -5.519531 C 1.191406 -5.539062 1.191406 -5.578125 1.011719 -5.578125 C 0.402344 -5.578125 0.0195312 -3.03125 0.0195312 -2.203125 Z M 0.0195312 -2.203125" transform="translate(430.665 145.743)"/></g></g></g><g fill="#1C2120"><g><g><path d="M 0.929688 -3.660156 C 1.070312 -4.164062 1.738281 -4.953125 2.285156 -5.054688 C 2.222656 -4.40625 1.433594 -3.921875 0.929688 -3.660156 Z M 0.0195312 -3.171875 C 0.0195312 -2.609375 0 -2.101562 0.484375 -1.617188 C 0.828125 -1.273438 1.234375 -1.132812 1.65625 -1.132812 C 2.890625 -1.132812 4.285156 -2.363281 5.03125 -3.113281 C 5.214844 -3.335938 5.214844 -3.355469 5.15625 -3.660156 C 4.546875 -3.660156 4.871094 -3.578125 4.042969 -2.929688 C 3.902344 -2.828125 3.839844 -2.75 3.679688 -2.628906 C 3.273438 -2.324219 2.425781 -1.738281 1.71875 -1.738281 C 1.476562 -1.738281 1.234375 -1.820312 1.050781 -2 C 0.707031 -2.34375 0.746094 -2.667969 0.746094 -3.09375 C 1.375 -3.132812 2.101562 -3.71875 2.425781 -4.082031 C 3.050781 -4.871094 3.050781 -5.679688 2.164062 -5.679688 C 1.191406 -5.679688 0.0195312 -4.183594 0.0195312 -3.171875 Z M 0.0195312 -3.171875" transform="translate(435.009 145.743)"/></g></g></g><g fill="#1C2120"><g><g><path d="M 0.0390625 -1.554688 C 0.0390625 -0.242188 0.0820312 2.242188 1.171875 2.242188 C 1.675781 2.242188 2.0625 1.476562 2.285156 1.132812 C 2.730469 0.382812 3.273438 -1.03125 3.699219 -1.898438 C 3.800781 -2.101562 4.425781 -3.273438 4.425781 -3.394531 C 4.425781 -3.496094 4.347656 -3.617188 4.246094 -3.617188 C 4.144531 -3.617188 4.023438 -3.539062 3.902344 -3.292969 C 3.253906 -2.140625 2.667969 -0.726562 2.0625 0.445312 C 1.839844 0.910156 1.554688 1.457031 1.113281 1.699219 C 0.203125 -0.0390625 1.335938 -6.328125 1.898438 -8.367188 C 1.960938 -8.570312 2.484375 -9.742188 1.820312 -9.742188 C 1.292969 -9.742188 1.113281 -8.730469 0.929688 -8.144531 C 0.425781 -6.285156 0.0390625 -3.558594 0.0390625 -1.554688 Z M 0.0390625 -1.554688" transform="translate(439.393 145.743)"/></g></g></g><g fill="#1C2120"><g><g><path d="M 1.011719 -0.464844 C 0.566406 -1.394531 1.496094 -3.214844 1.636719 -3.800781 C 2.34375 -3.335938 1.839844 -0.6875 1.011719 -0.464844 Z M 0 -1.152344 C 0 -0.101562 0.445312 0.425781 0.96875 0.425781 C 1.578125 0.425781 2.324219 -0.28125 2.628906 -1.675781 C 3.074219 -3.757812 2.101562 -4.101562 2 -4.488281 C 2.101562 -4.648438 2.285156 -4.769531 2.34375 -4.910156 C 2.40625 -5.074219 2.285156 -5.398438 2.019531 -5.398438 C 1.03125 -5.398438 0 -2.0625 0 -1.152344 Z M 0 -1.152344" transform="translate(442.948 145.743)"/></g></g></g><g fill="#1C2120"><g><g><path d="M 1.394531 1.253906 C 1.578125 0.484375 1.554688 0.566406 2.0625 0.101562 L 3.074219 -0.769531 C 2.910156 -0.160156 2.0625 0.890625 1.394531 1.253906 Z M 1.898438 -0.527344 C 1.960938 -1.273438 2.871094 -3.011719 3.273438 -3.011719 C 3.394531 -3.011719 3.457031 -2.871094 3.457031 -2.546875 C 3.457031 -1.636719 3.539062 -1.898438 2.34375 -0.890625 C 2.242188 -0.808594 2.242188 -0.808594 2.121094 -0.726562 C 2.019531 -0.625 2.019531 -0.605469 1.898438 -0.527344 Z M 0 -0.0820312 C 0 1.636719 0.222656 3.4375 0.464844 5.132812 C 0.503906 5.496094 0.503906 5.679688 0.808594 5.679688 C 1.253906 5.679688 0.96875 4.589844 0.96875 3.839844 C 0.96875 3.476562 1.070312 2.101562 1.375 1.921875 C 1.515625 1.820312 1.738281 1.738281 1.898438 1.65625 C 3.558594 0.707031 3.921875 -1.394531 4.101562 -1.597656 C 4.367188 -1.921875 6.328125 -3.074219 6.328125 -3.355469 C 6.328125 -3.539062 6.265625 -3.597656 6.144531 -3.597656 C 5.820312 -3.597656 5.09375 -2.992188 4.710938 -2.730469 C 4.546875 -2.628906 4.304688 -2.425781 4.144531 -2.386719 C 4.144531 -2.949219 3.859375 -3.636719 3.273438 -3.636719 C 1.878906 -3.636719 1.335938 0.160156 0.871094 0.503906 C 0.871094 -1.515625 1.03125 -3.292969 1.414062 -5.214844 C 1.554688 -5.882812 1.617188 -5.761719 1.496094 -6.226562 C 1.394531 -6.285156 1.292969 -6.304688 1.210938 -6.304688 C 0.34375 -6.304688 0 -0.890625 0 -0.0820312 Z M 0 -0.0820312" transform="translate(446.504 145.743)"/></g></g></g><g fill="#1C2120"><g><g><path d="M 0.929688 -3.660156 C 1.070312 -4.164062 1.738281 -4.953125 2.285156 -5.054688 C 2.222656 -4.40625 1.433594 -3.921875 0.929688 -3.660156 Z M 0.0195312 -3.171875 C 0.0195312 -2.609375 0 -2.101562 0.484375 -1.617188 C 0.828125 -1.273438 1.234375 -1.132812 1.65625 -1.132812 C 2.890625 -1.132812 4.285156 -2.363281 5.03125 -3.113281 C 5.214844 -3.335938 5.214844 -3.355469 5.15625 -3.660156 C 4.546875 -3.660156 4.871094 -3.578125 4.042969 -2.929688 C 3.902344 -2.828125 3.839844 -2.75 3.679688 -2.628906 C 3.273438 -2.324219 2.425781 -1.738281 1.71875 -1.738281 C 1.476562 -1.738281 1.234375 -1.820312 1.050781 -2 C 0.707031 -2.34375 0.746094 -2.667969 0.746094 -3.09375 C 1.375 -3.132812 2.101562 -3.71875 2.425781 -4.082031 C 3.050781 -4.871094 3.050781 -5.679688 2.164062 -5.679688 C 1.191406 -5.679688 0.0195312 -4.183594 0.0195312 -3.171875 Z M 0.0195312 -3.171875" transform="translate(452.16 145.743)"/></g></g></g><g fill="#1C2120"><g><g><path d="M 0.28125 -0.0820312 C 0.910156 -0.0820312 0.667969 -0.769531 0.789062 -1.292969 C 0.871094 -1.777344 1.050781 -2.183594 1.253906 -2.527344 C 1.578125 -3.050781 1.675781 -3.050781 2.445312 -3.050781 C 2.667969 -3.050781 2.972656 -3.03125 3.234375 -3.03125 C 3.636719 -3.03125 3.960938 -3.074219 3.960938 -3.355469 C 3.960938 -3.617188 3.335938 -3.660156 2.75 -3.660156 C 2.40625 -3.660156 2.0625 -3.636719 1.878906 -3.636719 C 1.253906 -3.636719 1.132812 -3.253906 0.828125 -3.050781 C 0.828125 -3.316406 0.871094 -3.292969 0.871094 -3.578125 C 0.871094 -3.78125 0.871094 -4.023438 0.890625 -4.222656 C 0.949219 -4.789062 1.050781 -5.175781 0.503906 -5.175781 C 0.0625 -5.175781 0.0195312 -3.074219 0.0195312 -2.707031 C 0.0390625 -2.203125 0.0195312 -1.699219 0.0390625 -1.210938 C 0.0390625 -1.070312 -0.121094 -0.0820312 0.28125 -0.0820312 Z M 0.28125 -0.0820312" transform="translate(456.545 145.743)"/></g></g></g><path stroke-linecap="round" transform="matrix(3.00618 0 0 2.85148 298.047 143.329)" fill="none" d="M 0.500376 -0.000153684 L 8.981602 -0.000153684" stroke="#000"/><path stroke-linecap="round" transform="matrix(3.00618 0 0 2.85148 462.431 143.329)" fill="none" d="M 0.49974 -0.000153684 L 8.982265 -0.000153684" stroke="#000"/><g fill="#1C2120"><g><g><path d="M 6.984375 -13.390625 L 7.5 -14.125 L 16.40625 -23.65625 L 21.28125 -23.65625 L 11.5 -13.3125 L 21.640625 0 L 16.828125 0 L 8.734375 -10.921875 L 7.078125 -9.296875 L 7.078125 0 L 3.25 0 L 3.25 -23.65625 L 7.078125 -23.65625 L 7.078125 -14.578125 Z M 6.984375 -13.390625" transform="translate(290.905 120.194)"/></g></g></g><g fill="#1C2120"><g><g><path d="M 15.390625 -5.5625 L 6.796875 -5.5625 L 4.515625 0 L 0.78125 0 L 11.234375 -24.625 L 11.46875 -24.625 L 21.921875 0 L 17.578125 0 Z M 14.125 -8.796875 L 11.171875 -16.28125 L 8.125 -8.796875 Z M 14.125 -8.796875" transform="translate(318.254 120.194)"/></g></g></g><g fill="#1C2120"><g><g><path d="M 17.375 -23.65625 L 17.375 -20.015625 L 11.265625 -20.015625 L 11.265625 0 L 7.5 0 L 7.5 -20.015625 L 1.5625 -20.015625 L 1.5625 -23.65625 Z M 17.375 -23.65625" transform="translate(345.929 120.194)"/></g></g></g><g fill="#1C2120"><g><g><path d="M 7.046875 -23.65625 L 7.046875 0 L 3.25 0 L 3.25 -23.65625 Z M 7.046875 -23.65625" transform="translate(369.836 120.194)"/></g></g></g><g fill="#1C2120"><g><g><path d="M 18.9375 -23.65625 L 18.9375 -20.015625 L 7.046875 -20.015625 L 7.046875 -13.703125 L 17.640625 -13.703125 L 17.640625 -10.0625 L 7.046875 -10.0625 L 7.046875 -3.640625 L 19.390625 -3.640625 L 19.390625 0 L 3.25 0 L 3.25 -23.65625 Z M 18.9375 -23.65625" transform="translate(385.102 120.194)"/></g></g></g><g fill="#1C2120"><g><g><path d="M 16.171875 0 L 10.84375 -8.21875 L 7.046875 -8.21875 L 7.046875 0 L 3.25 0 L 3.25 -23.65625 L 9.90625 -23.65625 C 12.550781 -23.65625 14.664062 -22.984375 16.25 -21.640625 C 17.84375 -20.296875 18.640625 -18.429688 18.640625 -16.046875 C 18.640625 -14.597656 18.332031 -13.25 17.71875 -12 C 17.101562 -10.757812 16.132812 -9.800781 14.8125 -9.125 L 20.5625 0 Z M 7.046875 -11.859375 L 10.421875 -11.859375 C 11.941406 -11.859375 13.039062 -12.273438 13.71875 -13.109375 C 14.40625 -13.941406 14.75 -14.878906 14.75 -15.921875 C 14.75 -16.523438 14.617188 -17.132812 14.359375 -17.75 C 14.097656 -18.363281 13.648438 -18.894531 13.015625 -19.34375 C 12.390625 -19.789062 11.570312 -20.015625 10.5625 -20.015625 L 7.046875 -20.015625 Z M 7.046875 -11.859375" transform="translate(426.81 120.194)"/></g></g></g><g fill="#1C2120"><g><g><path d="M 18.9375 -23.65625 L 18.9375 -20.015625 L 7.046875 -20.015625 L 7.046875 -13.703125 L 17.640625 -13.703125 L 17.640625 -10.0625 L 7.046875 -10.0625 L 7.046875 -3.640625 L 19.390625 -3.640625 L 19.390625 0 L 3.25 0 L 3.25 -23.65625 Z M 18.9375 -23.65625" transform="translate(453.542 120.194)"/></g></g></g><g fill="#1C2120"><g><g><path d="M 22.125 -23.65625 L 13.25 -7.671875 L 13.25 0 L 9.484375 0 L 9.484375 -7.671875 L 0.75 -23.65625 L 5.390625 -23.65625 L 11.5 -11.984375 L 17.46875 -23.65625 Z M 22.125 -23.65625" transform="translate(479.885 120.194)"/></g></g></g></svg>